<svg xmlns="http://www.w3.org/2000/svg" version="1.1" xmlns:xlink="http://www.w3.org/1999/xlink" width="512" height="512" x="0" y="0" viewBox="0 0 512 512" style="enable-background:new 0 0 512 512" xml:space="preserve" class=""><g><path d="M85.1 464c1.9 29.9 21.7 48 52 48h235.6c34.5 0 52.7-17.7 54.8-52 5.6-92.4 19.2-317.7 20.2-336.1H64.9c0 4 13.4 231.9 20.2 340.1zM447.3 32.9c-27.1-.2-54.1-.4-81.1.1-1.6-18.6-17.2-33-35.9-33H181.7c-18.7 0-34.3 14.4-35.8 33-27.8-.5-55.7-.3-83.5-.1-14.6.2-25.2 8.3-28.7 21.1-6.1 22.3 7.4 40.7 30.5 40.8 64.1.2 128.1.1 192.1.1h190.8c20.7 0 32.6-11.6 32.7-30.9s-11.9-31-32.5-31.1z" fill="#000000" opacity="1" data-original="#000000" class=""></path></g></svg>