<svg xmlns="http://www.w3.org/2000/svg" version="1.1" xmlns:xlink="http://www.w3.org/1999/xlink" width="512" height="512" x="0" y="0" viewBox="0 0 24 24" style="enable-background:new 0 0 512 512" xml:space="preserve" class=""><g><path d="M22.175 5.015a3.45 3.45 0 0 0-2.388-1.23L9.227 2.3a3.43 3.43 0 0 0-2.627.525 3.447 3.447 0 0 0-1.232 2.386l-.147 1.037h-.554A3.082 3.082 0 0 0 1.25 9.665v8.668a3.082 3.082 0 0 0 3.417 3.417h10.668c1.909 0 3.072-.914 3.35-2.59a3.014 3.014 0 0 0 2.815-2.937l1.2-8.58a3.427 3.427 0 0 0-.525-2.628zM4.667 7.748h10.668c1.362 0 1.918.555 1.918 1.917v5.079l-3.423-3.423a1.644 1.644 0 0 0-2.323 0l-4.173 4.173-.616-.617a1.645 1.645 0 0 0-2.323 0L2.75 16.522V9.665c0-1.365.556-1.917 1.917-1.917zm10.668 12.5H4.667c-1.256 0-1.82-.481-1.9-1.623l2.689-2.689a.147.147 0 0 1 .2 0l.836.836a1.191 1.191 0 0 0 1.683 0l4.391-4.392a.148.148 0 0 1 .2 0l4.483 4.483v1.468c.004 1.369-.549 1.919-1.914 1.919zM21.21 7.434l-1.2 8.578c-.145 1.007-.526 1.514-1.258 1.638V9.665a3.082 3.082 0 0 0-3.418-3.417h-8.6l.118-.826a2.04 2.04 0 0 1 .648-1.4 2.02 2.02 0 0 1 1.517-.232l10.561 1.48a2.048 2.048 0 0 1 1.4.647 2.028 2.028 0 0 1 .232 1.517zM5.517 11.5a1 1 0 0 1 .994-1h.008a1 1 0 1 1-1 1z" fill="#ffffff" opacity="1" data-original="#000000" class=""></path></g></svg>